#!OML:ASF F:\VICON\USERDATA\INSTALL\rory3\rory3.ASF
:FULLY-SPECIFIED
:DEGREES
417
root -17.8345 17.8009 9.83624 140.897 -83.5976 -141.422
lowerback 9.05525 3.09264 4.83681
upperback 0.828129 4.61035 1.47256
thorax -3.94672 2.19201 -1.73326
lowerneck -20.509 -6.3486 -11.1881
upperneck 27.7447 -8.1846 7.9187
head 13.6375 -3.85511 3.51544
rclavicle 3.3048e-014 1.63003e-014
rhumerus -22.3033 -5.89167 -81.8041
rradius 34.8231
rwrist 3.26759
rhand -15.7214 8.78881
rfingers 7.12502
rthumb 10.4689 -20.9305
lclavicle 3.3048e-014 1.63003e-014
lhumerus -37.9451 7.68277 83.1092
lradius 24.8806
lwrist -11.7072
lhand -12.9695 26.391
lfingers 7.12502
lthumb 13.1226 55.9581
rfemur 8.334 -0.543308 29.5009
rtibia 14.8217
rfoot -14.8452 3.65393
rtoes 12.0931
lfemur -22.0374 -2.05277 -13.6526
ltibia 17.0624
lfoot -6.29915 4.0925
ltoes -10.9431
418
root -17.9722 17.7928 9.84917 140.831 -83.375 -141.322
lowerback 8.97257 3.14323 4.9798
upperback 0.803506 4.68914 1.52342
thorax -3.91439 2.22926 -1.76386
lowerneck -20.444 -6.2994 -11.0757
upperneck 27.6437 -8.10304 7.78347
head 13.558 -3.82527 3.45665
rclavicle -2.85753e-014 2.00773e-014
rhumerus -22.3589 -5.63905 -81.8255
rradius 35.3464
rwrist 3.02137
rhand -15.7643 8.57251
rfingers 7.12502
rthumb 10.4275 -21.1489
lclavicle -2.85753e-014 2.00773e-014
lhumerus -38.1268 7.68918 83.1106
lradius 24.8001
lwrist -11.6185
lhand -13.3695 26.3823
lfingers 7.12502
lthumb 12.737 55.9739
rfemur 9.09861 -0.607059 29.5253
rtibia 14.1803
rfoot -14.6713 3.77172
rtoes 11.287
lfemur -22.0696 -2.8488 -13.339
ltibia 16.0552
lfoot -6.84948 4.98461
ltoes -8.9966
419
root -18.1069 17.7807 9.86298 141.166 -83.3456 -141.502
lowerback 8.77766 3.17666 5.09201
upperback 0.758277 4.73343 1.46192
thorax -3.83577 2.25169 -1.88295
lowerneck -20.4242 -6.30658 -11.0122
upperneck 27.5507 -8.10684 7.7244
head 13.5088 -3.82634 3.41999
rclavicle -3.03644e-014 -1.37161e-014
rhumerus -22.2676 -6.00003 -81.8582
rradius 35.5889
rwrist 3.39945
rhand -15.5465 8.34952
rfingers 7.12502
rthumb 10.6376 -21.3612
lclavicle -3.03644e-014 -1.37161e-014
lhumerus -38.2736 7.84224 82.9689
lradius 24.764
lwrist -11.8216
lhand -13.3958 26.1793
lfingers 7.12502
lthumb 12.7116 55.7724
rfemur 9.60431 -1.05036 29.4061
rtibia 13.5621
rfoot -14.5583 3.71226
rtoes 8.2643
lfemur -22.3114 -3.98283 -13.1164
ltibia 15.3827
lfoot -7.55363 6.22761
ltoes -6.83886
420
root -18.2418 17.7643 9.87889 141.569 -83.3962 -141.814
lowerback 8.69316 3.19529 5.16056
upperback 0.693633 4.76136 1.37923
thorax -3.84163 2.26397 -2.00602
lowerneck -20.4351 -6.33335 -11.0471
upperneck 27.5526 -8.14733 7.7702
head 13.5211 -3.84134 3.43638
rclavicle -4.49253e-014 -1.11319e-014
rhumerus -22.033 -6.23338 -81.9133
rradius 35.4019
rwrist 3.66272
rhand -15.5388 8.52529
rfingers 7.12502
rthumb 10.6451 -21.1851
lclavicle -4.49253e-014 -1.11319e-014
lhumerus -38.4273 7.89584 82.8669
lradius 24.6879
lwrist -12.0113
lhand -13.7454 26.0595
lfingers 7.12502
lthumb 12.3746 55.6732
rfemur 10.2122 -1.44789 29.2674
rtibia 12.9251
rfoot -14.4069 3.37608
rtoes 3.42039
lfemur -22.5616 -4.48653 -13.177
ltibia 15.0329
lfoot -7.93589 7.51512
ltoes -8.10368
421
root -18.3757 17.7541 9.89183 141.881 -83.3391 -142.092
lowerback 8.69577 3.2258 5.16169
upperback 0.63869 4.80508 1.35443
thorax -3.89527 2.28361 -2.03928
lowerneck -20.5616 -6.35674 -11.0651
upperneck 27.6721 -8.18465 7.8065
head 13.6054 -3.85305 3.4471
rclavicle -5.50137e-014 -6.36111e-015
rhumerus -21.8621 -6.27597 -82.0082
rradius 35.3698
rwrist 3.44234
rhand -15.7442 9.01026
rfingers 7.12502
rthumb 10.4469 -20.7102
lclavicle -5.50137e-014 -6.36111e-015
lhumerus -38.5923 8.02743 82.7251
lradius 24.6275
lwrist -12.1747
lhand -13.7986 26.2937
lfingers 7.12502
lthumb 12.3233 55.9106
rfemur 10.8671 -1.32266 29.2287
rtibia 12.5103
rfoot -14.2374 3.17408
rtoes 1.84841
lfemur -22.5824 -4.70001 -13.2053
ltibia 14.777
lfoot -7.9957 8.41754
ltoes -7.56586
422
root -18.5109 17.7478 9.90278 142.682 -83.249 -142.786
lowerback 8.62243 3.2738 5.07235
upperback 0.557296 4.86134 1.35348
thorax -3.9428 2.31137 -1.99523
lowerneck -20.7138 -6.35762 -11.1945
upperneck 27.8297 -8.19083 7.96381
head 13.7202 -3.84752 3.53221
rclavicle -4.84289e-014 -1.21259e-014
rhumerus -21.9178 -5.94852 -82.0652
rradius 35.7434
rwrist 2.72333
rhand -15.7299 9.06279
rfingers 7.12502
rthumb 10.4607 -20.657
lclavicle -4.84289e-014 -1.21259e-014
lhumerus -38.8043 8.15496 82.5963
lradius 24.6324
lwrist -12.1677
lhand -12.6551 26.3324
lfingers 7.12502
lthumb 13.4257 55.8797
rfemur 11.3678 -0.808264 29.1833
rtibia 12.3839
rfoot -14.1752 3.16685
rtoes 3.62725
lfemur -22.4939 -4.13325 -13.4737
ltibia 14.5326
lfoot -7.91975 8.13659
ltoes -6.42316
423
root -18.6457 17.7346 9.91405 142.55 -83.1681 -142.531
lowerback 8.52501 3.26743 5.03821
upperback 0.482922 4.85027 1.41899
thorax -3.97542 2.30529 -1.90395
lowerneck -20.76 -6.28709 -11.2443
upperneck 27.866 -8.07104 7.97737
head 13.7339 -3.79853 3.56954
rclavicle -6.55244e-014 2.98177e-015
rhumerus -21.9967 -5.75813 -82.0426
rradius 36.0997
rwrist 2.61097
rhand -15.5327 8.84058
rfingers 7.12502
rthumb 10.6509 -20.8695
lclavicle -6.55244e-014 2.98177e-015
lhumerus -38.9395 8.08203 82.6541
lradius 24.5705
lwrist -11.9428
lhand -13.2856 26.2263
lfingers 7.12502
lthumb 12.8179 55.8128
rfemur 11.7408 -0.426839 29.2229
rtibia 12.4277
rfoot -14.1483 3.27788
rtoes 5.37421
lfemur -22.4018 -3.26624 -13.8179
ltibia 14.3931
lfoot -7.02689 7.46903
ltoes -6.9458
424
root -18.7804 17.7199 9.93027 140.448 -83.1684 -140.337
lowerback 8.41459 3.17575 5.26059
upperback 0.452017 4.74499 1.47628
thorax -3.93997 2.24975 -1.95014
lowerneck -20.8189 -6.20882 -11.0161
upperneck 27.8509 -7.93588 7.7066
head 13.6972 -3.74837 3.44626
rclavicle 1.85864e-014 -3.97569e-015
rhumerus -22.1087 -5.99083 -82.0866
rradius 36.3641
rwrist 2.91839
rhand -15.4384 8.97946
rfingers 7.12502
rthumb 10.7419 -20.7259
lclavicle 1.85864e-014 -3.97569e-015
lhumerus -39.0143 8.25698 82.5959
lradius 24.4849
lwrist -12.076
lhand -13.6274 26.2303
lfingers 7.12502
lthumb 12.4883 55.8372
rfemur 12.032 -0.433589 29.3512
rtibia 12.6014
rfoot -14.0554 3.41577
rtoes 5.19579
lfemur -22.3344 -2.62977 -14.0593
ltibia 14.4041
lfoot -5.65355 7.02423
ltoes -7.10429
425
root -18.9185 17.707 9.94746 139.372 -83.2518 -139.211
lowerback 8.34384 3.12049 5.42042
upperback 0.410908 4.68263 1.42884
thorax -3.93095 2.21577 -2.07776
lowerneck -20.8509 -6.16836 -10.7839
upperneck 27.8316 -7.85312 7.41188
head 13.6587 -3.72445 3.30307
rclavicle -6.57232e-015 3.37934e-015
rhumerus -22.2855 -6.27812 -82.2023
rradius 36.5576
rwrist 3.00806
rhand -15.4184 9.20073
rfingers 7.12502
rthumb 10.7612 -20.5036
lclavicle -6.57232e-015 3.37934e-015
lhumerus -39.0784 8.54024 82.3967
lradius 24.3715
lwrist -12.3015
lhand -13.5883 26.3594
lfingers 7.12502
lthumb 12.5261 55.9639
rfemur 12.2986 -0.57752 29.3215
rtibia 12.8656
rfoot -13.9607 3.17006
rtoes 2.1118
lfemur -22.1706 -2.26035 -14.4045
ltibia 14.5604
lfoot -4.64907 6.99834
ltoes -7.38548
426
root -19.0586 17.6937 9.96153 139.374 -83.2575 -139.314
lowerback 8.40709 3.11412 5.44025
upperback 0.421732 4.67878 1.40198
thorax -3.95146 2.2128 -2.11984
lowerneck -20.8933 -6.16111 -10.887
upperneck 27.8226 -7.84366 7.54868
head 13.675 -3.71195 3.37681
rclavicle -7.86442e-015 5.1684e-015
rhumerus -22.4065 -6.34714 -82.2958
rradius 36.7941
rwrist 2.92297
rhand -15.4454 9.09732
rfingers 7.12502
rthumb 10.7351 -20.6084
lclavicle -7.86442e-015 5.1684e-015
lhumerus -39.13 8.71691 82.2617
lradius 24.3355
lwrist -12.3306
lhand -13.6375 26.097
lfingers 7.12502
lthumb 12.4787 55.7044
rfemur 12.7287 -0.44734 29.2822
rtibia 13.1457
rfoot -13.8039 2.8404
rtoes 0.546704
lfemur -21.784 -1.93722 -14.7477
ltibia 14.8668
lfoot -4.01335 6.88854
ltoes -7.9131
